<mxfile host="app.diagrams.net" modified="2024-03-05T03:35:06.248Z" agent="Mozilla/5.0 (Macintosh; Intel Mac OS X 10_15_7) AppleWebKit/537.36 (KHTML, like Gecko) Chrome/122.0.0.0 Safari/537.36" etag="OBU_vxQ8W5td10YnbnDX" version="23.1.5" type="device">
  <diagram name="페이지-1" id="87shg-z8ugGtn29xJgWJ">
    <mxGraphModel dx="645" dy="368" grid="1" gridSize="10" guides="1" tooltips="1" connect="1" arrows="1" fold="1" page="1" pageScale="1" pageWidth="827" pageHeight="1169" math="0" shadow="0">
      <root>
        <mxCell id="0" />
        <mxCell id="1" parent="0" />
        <mxCell id="HdKxsNekRlm6qPtQ5LWP-4" value="" style="edgeStyle=orthogonalEdgeStyle;rounded=0;orthogonalLoop=1;jettySize=auto;html=1;" edge="1" parent="1" source="HdKxsNekRlm6qPtQ5LWP-1" target="HdKxsNekRlm6qPtQ5LWP-3">
          <mxGeometry relative="1" as="geometry" />
        </mxCell>
        <mxCell id="HdKxsNekRlm6qPtQ5LWP-1" value="Object" style="rounded=1;whiteSpace=wrap;html=1;" vertex="1" parent="1">
          <mxGeometry x="354" y="110" width="120" height="30" as="geometry" />
        </mxCell>
        <mxCell id="HdKxsNekRlm6qPtQ5LWP-13" style="edgeStyle=orthogonalEdgeStyle;rounded=0;orthogonalLoop=1;jettySize=auto;html=1;" edge="1" parent="1" source="HdKxsNekRlm6qPtQ5LWP-3" target="HdKxsNekRlm6qPtQ5LWP-8">
          <mxGeometry relative="1" as="geometry">
            <Array as="points">
              <mxPoint x="414" y="210" />
              <mxPoint x="540" y="210" />
            </Array>
          </mxGeometry>
        </mxCell>
        <mxCell id="HdKxsNekRlm6qPtQ5LWP-3" value="Throwable" style="rounded=1;whiteSpace=wrap;html=1;" vertex="1" parent="1">
          <mxGeometry x="354" y="160" width="120" height="30" as="geometry" />
        </mxCell>
        <mxCell id="HdKxsNekRlm6qPtQ5LWP-15" style="edgeStyle=orthogonalEdgeStyle;rounded=0;orthogonalLoop=1;jettySize=auto;html=1;" edge="1" parent="1" source="HdKxsNekRlm6qPtQ5LWP-7" target="HdKxsNekRlm6qPtQ5LWP-11">
          <mxGeometry relative="1" as="geometry">
            <Array as="points">
              <mxPoint x="294" y="280" />
              <mxPoint x="200" y="280" />
            </Array>
          </mxGeometry>
        </mxCell>
        <mxCell id="HdKxsNekRlm6qPtQ5LWP-16" style="edgeStyle=orthogonalEdgeStyle;rounded=0;orthogonalLoop=1;jettySize=auto;html=1;" edge="1" parent="1" source="HdKxsNekRlm6qPtQ5LWP-7" target="HdKxsNekRlm6qPtQ5LWP-10">
          <mxGeometry relative="1" as="geometry">
            <Array as="points">
              <mxPoint x="294" y="280" />
              <mxPoint x="390" y="280" />
            </Array>
          </mxGeometry>
        </mxCell>
        <mxCell id="HdKxsNekRlm6qPtQ5LWP-18" style="edgeStyle=orthogonalEdgeStyle;rounded=0;orthogonalLoop=1;jettySize=auto;html=1;" edge="1" parent="1" source="HdKxsNekRlm6qPtQ5LWP-7">
          <mxGeometry relative="1" as="geometry">
            <mxPoint x="294" y="309.9999999999999" as="targetPoint" />
          </mxGeometry>
        </mxCell>
        <mxCell id="HdKxsNekRlm6qPtQ5LWP-7" value="Exception" style="rounded=1;whiteSpace=wrap;html=1;" vertex="1" parent="1">
          <mxGeometry x="234" y="230" width="120" height="30" as="geometry" />
        </mxCell>
        <mxCell id="HdKxsNekRlm6qPtQ5LWP-17" style="edgeStyle=orthogonalEdgeStyle;rounded=0;orthogonalLoop=1;jettySize=auto;html=1;" edge="1" parent="1" source="HdKxsNekRlm6qPtQ5LWP-8" target="HdKxsNekRlm6qPtQ5LWP-9">
          <mxGeometry relative="1" as="geometry">
            <Array as="points">
              <mxPoint x="540" y="280" />
              <mxPoint x="650" y="280" />
            </Array>
          </mxGeometry>
        </mxCell>
        <mxCell id="HdKxsNekRlm6qPtQ5LWP-21" style="edgeStyle=orthogonalEdgeStyle;rounded=0;orthogonalLoop=1;jettySize=auto;html=1;" edge="1" parent="1" source="HdKxsNekRlm6qPtQ5LWP-8" target="HdKxsNekRlm6qPtQ5LWP-20">
          <mxGeometry relative="1" as="geometry" />
        </mxCell>
        <mxCell id="HdKxsNekRlm6qPtQ5LWP-8" value="Error" style="rounded=1;whiteSpace=wrap;html=1;" vertex="1" parent="1">
          <mxGeometry x="480" y="230" width="120" height="30" as="geometry" />
        </mxCell>
        <mxCell id="HdKxsNekRlm6qPtQ5LWP-9" value="OutOfMemoryError" style="rounded=1;whiteSpace=wrap;html=1;" vertex="1" parent="1">
          <mxGeometry x="610" y="310" width="120" height="30" as="geometry" />
        </mxCell>
        <mxCell id="HdKxsNekRlm6qPtQ5LWP-10" value="IOException" style="rounded=1;whiteSpace=wrap;html=1;" vertex="1" parent="1">
          <mxGeometry x="353" y="310" width="120" height="30" as="geometry" />
        </mxCell>
        <mxCell id="HdKxsNekRlm6qPtQ5LWP-11" value="RuntimeException" style="rounded=1;whiteSpace=wrap;html=1;" vertex="1" parent="1">
          <mxGeometry x="130" y="310" width="120" height="30" as="geometry" />
        </mxCell>
        <mxCell id="HdKxsNekRlm6qPtQ5LWP-14" style="edgeStyle=orthogonalEdgeStyle;rounded=0;orthogonalLoop=1;jettySize=auto;html=1;entryX=0.571;entryY=-0.059;entryDx=0;entryDy=0;entryPerimeter=0;" edge="1" parent="1" source="HdKxsNekRlm6qPtQ5LWP-3" target="HdKxsNekRlm6qPtQ5LWP-7">
          <mxGeometry relative="1" as="geometry" />
        </mxCell>
        <mxCell id="HdKxsNekRlm6qPtQ5LWP-19" value="..." style="text;html=1;align=center;verticalAlign=middle;whiteSpace=wrap;rounded=0;" vertex="1" parent="1">
          <mxGeometry x="264" y="310" width="60" height="30" as="geometry" />
        </mxCell>
        <mxCell id="HdKxsNekRlm6qPtQ5LWP-20" value="..." style="text;html=1;align=center;verticalAlign=middle;whiteSpace=wrap;rounded=0;" vertex="1" parent="1">
          <mxGeometry x="480" y="310" width="60" height="30" as="geometry" />
        </mxCell>
      </root>
    </mxGraphModel>
  </diagram>
</mxfile>
